STARTFONT 2.1
FONT --Space-Medium-R-Normal--10-100-72-72-M-60-SGI-FONTSPECIFIC
COMMENT The all-space font
SIZE 10 72 72
FONTBOUNDINGBOX -3 -3 6 10
STARTPROPERTIES 22
_DEC_DEVICE_FONTNAMES "FM=Space"
COMMENT Begin LogicalFontDescription
FONTNAME_REGISTRY ""
FAMILY_NAME "Space"
FOUNDRY ""
WEIGHT_NAME "Medium"
SLANT "R"
SETWIDTH_NAME "Normal"
ADD_STYLE_NAME ""
PIXEL_SIZE 10
POINT_SIZE 100
RESOLUTION_X 72
RESOLUTION_Y 72
SPACING "M"
AVERAGE_WIDTH 60
CHARSET_REGISTRY "SGI"
CHARSET_ENCODING "FONTSPECIFIC"
COMMENT END LogicalFontDescription
CHARSET_COLLECTIONS "FONTSPECIFIC"
FULL_NAME "Space"
COMMENT ***** end of inserted font properties
FONT_ASCENT -2
FONT_DESCENT 3
CAP_HEIGHT 1
X_HEIGHT 1
ENDPROPERTIES
CHARS 95
STARTCHAR space
ENCODING 32
SWIDTH 602 0
DWIDTH 6 0
BBX 1 1 -3 -3
BITMAP
00
ENDCHAR
STARTCHAR exclam
ENCODING 33
SWIDTH 602 0
DWIDTH 6 0
BBX 1 1 -3 -3
BITMAP
00
ENDCHAR
STARTCHAR quotedbl
ENCODING 34
SWIDTH 602 0
DWIDTH 6 0
BBX 1 1 -3 -3
BITMAP
00
ENDCHAR
STARTCHAR numbersign
ENCODING 35
SWIDTH 602 0
DWIDTH 6 0
BBX 1 1 -3 -3
BITMAP
00
ENDCHAR
STARTCHAR dollar
ENCODING 36
SWIDTH 602 0
DWIDTH 6 0
BBX 1 1 -3 -3
BITMAP
00
ENDCHAR
STARTCHAR percent
ENCODING 37
SWIDTH 602 0
DWIDTH 6 0
BBX 1 1 -3 -3
BITMAP
00
ENDCHAR
STARTCHAR ampersand
ENCODING 38
SWIDTH 602 0
DWIDTH 6 0
BBX 1 1 -3 -3
BITMAP
00
ENDCHAR
STARTCHAR quoteright
ENCODING 39
SWIDTH 602 0
DWIDTH 6 0
BBX 1 1 -3 -3
BITMAP
00
ENDCHAR
STARTCHAR parenleft
ENCODING 40
SWIDTH 602 0
DWIDTH 6 0
BBX 1 1 -3 -3
BITMAP
00
ENDCHAR
STARTCHAR parenright
ENCODING 41
SWIDTH 602 0
DWIDTH 6 0
BBX 1 1 -3 -3
BITMAP
00
ENDCHAR
STARTCHAR asterisk
ENCODING 42
SWIDTH 602 0
DWIDTH 6 0
BBX 1 1 -3 -3
BITMAP
00
ENDCHAR
STARTCHAR plus
ENCODING 43
SWIDTH 602 0
DWIDTH 6 0
BBX 1 1 -3 -3
BITMAP
00
ENDCHAR
STARTCHAR comma
ENCODING 44
SWIDTH 602 0
DWIDTH 6 0
BBX 1 1 -3 -3
BITMAP
00
ENDCHAR
STARTCHAR hyphen
ENCODING 45
SWIDTH 602 0
DWIDTH 6 0
BBX 1 1 -3 -3
BITMAP
00
ENDCHAR
STARTCHAR period
ENCODING 46
SWIDTH 602 0
DWIDTH 6 0
BBX 1 1 -3 -3
BITMAP
00
ENDCHAR
STARTCHAR slash
ENCODING 47
SWIDTH 602 0
DWIDTH 6 0
BBX 1 1 -3 -3
BITMAP
00
ENDCHAR
STARTCHAR zero
ENCODING 48
SWIDTH 602 0
DWIDTH 6 0
BBX 1 1 -3 -3
BITMAP
00
ENDCHAR
STARTCHAR one
ENCODING 49
SWIDTH 602 0
DWIDTH 6 0
BBX 1 1 -3 -3
BITMAP
00
ENDCHAR
STARTCHAR two
ENCODING 50
SWIDTH 602 0
DWIDTH 6 0
BBX 1 1 -3 -3
BITMAP
00
ENDCHAR
STARTCHAR three
ENCODING 51
SWIDTH 602 0
DWIDTH 6 0
BBX 1 1 -3 -3
BITMAP
00
ENDCHAR
STARTCHAR four
ENCODING 52
SWIDTH 602 0
DWIDTH 6 0
BBX 1 1 -3 -3
BITMAP
00
ENDCHAR
STARTCHAR five
ENCODING 53
SWIDTH 602 0
DWIDTH 6 0
BBX 1 1 -3 -3
BITMAP
00
ENDCHAR
STARTCHAR six
ENCODING 54
SWIDTH 602 0
DWIDTH 6 0
BBX 1 1 -3 -3
BITMAP
00
ENDCHAR
STARTCHAR seven
ENCODING 55
SWIDTH 602 0
DWIDTH 6 0
BBX 1 1 -3 -3
BITMAP
00
ENDCHAR
STARTCHAR eight
ENCODING 56
SWIDTH 602 0
DWIDTH 6 0
BBX 1 1 -3 -3
BITMAP
00
ENDCHAR
STARTCHAR nine
ENCODING 57
SWIDTH 602 0
DWIDTH 6 0
BBX 1 1 -3 -3
BITMAP
00
ENDCHAR
STARTCHAR colon
ENCODING 58
SWIDTH 602 0
DWIDTH 6 0
BBX 1 1 -3 -3
BITMAP
00
ENDCHAR
STARTCHAR semicolon
ENCODING 59
SWIDTH 602 0
DWIDTH 6 0
BBX 1 1 -3 -3
BITMAP
00
ENDCHAR
STARTCHAR less
ENCODING 60
SWIDTH 602 0
DWIDTH 6 0
BBX 1 1 -3 -3
BITMAP
00
ENDCHAR
STARTCHAR equal
ENCODING 61
SWIDTH 602 0
DWIDTH 6 0
BBX 1 1 -3 -3
BITMAP
00
ENDCHAR
STARTCHAR greater
ENCODING 62
SWIDTH 602 0
DWIDTH 6 0
BBX 1 1 -3 -3
BITMAP
00
ENDCHAR
STARTCHAR question
ENCODING 63
SWIDTH 602 0
DWIDTH 6 0
BBX 1 1 -3 -3
BITMAP
00
ENDCHAR
STARTCHAR at
ENCODING 64
SWIDTH 602 0
DWIDTH 6 0
BBX 1 1 -3 -3
BITMAP
00
ENDCHAR
STARTCHAR A
ENCODING 65
SWIDTH 602 0
DWIDTH 6 0
BBX 1 1 -3 -3
BITMAP
00
ENDCHAR
STARTCHAR B
ENCODING 66
SWIDTH 602 0
DWIDTH 6 0
BBX 1 1 -3 -3
BITMAP
00
ENDCHAR
STARTCHAR C
ENCODING 67
SWIDTH 602 0
DWIDTH 6 0
BBX 1 1 -3 -3
BITMAP
00
ENDCHAR
STARTCHAR D
ENCODING 68
SWIDTH 602 0
DWIDTH 6 0
BBX 1 1 -3 -3
BITMAP
00
ENDCHAR
STARTCHAR E
ENCODING 69
SWIDTH 602 0
DWIDTH 6 0
BBX 1 1 -3 -3
BITMAP
00
ENDCHAR
STARTCHAR F
ENCODING 70
SWIDTH 602 0
DWIDTH 6 0
BBX 1 1 -3 -3
BITMAP
00
ENDCHAR
STARTCHAR G
ENCODING 71
SWIDTH 602 0
DWIDTH 6 0
BBX 1 1 -3 -3
BITMAP
00
ENDCHAR
STARTCHAR H
ENCODING 72
SWIDTH 602 0
DWIDTH 6 0
BBX 1 1 -3 -3
BITMAP
00
ENDCHAR
STARTCHAR I
ENCODING 73
SWIDTH 602 0
DWIDTH 6 0
BBX 1 1 -3 -3
BITMAP
00
ENDCHAR
STARTCHAR J
ENCODING 74
SWIDTH 602 0
DWIDTH 6 0
BBX 1 1 -3 -3
BITMAP
00
ENDCHAR
STARTCHAR K
ENCODING 75
SWIDTH 602 0
DWIDTH 6 0
BBX 1 1 -3 -3
BITMAP
00
ENDCHAR
STARTCHAR L
ENCODING 76
SWIDTH 602 0
DWIDTH 6 0
BBX 1 1 -3 -3
BITMAP
00
ENDCHAR
STARTCHAR M
ENCODING 77
SWIDTH 602 0
DWIDTH 6 0
BBX 1 1 -3 -3
BITMAP
00
ENDCHAR
STARTCHAR N
ENCODING 78
SWIDTH 602 0
DWIDTH 6 0
BBX 1 1 -3 -3
BITMAP
00
ENDCHAR
STARTCHAR O
ENCODING 79
SWIDTH 602 0
DWIDTH 6 0
BBX 1 1 -3 -3
BITMAP
00
ENDCHAR
STARTCHAR P
ENCODING 80
SWIDTH 602 0
DWIDTH 6 0
BBX 1 1 -3 -3
BITMAP
00
ENDCHAR
STARTCHAR Q
ENCODING 81
SWIDTH 602 0
DWIDTH 6 0
BBX 1 1 -3 -3
BITMAP
00
ENDCHAR
STARTCHAR R
ENCODING 82
SWIDTH 602 0
DWIDTH 6 0
BBX 1 1 -3 -3
BITMAP
00
ENDCHAR
STARTCHAR S
ENCODING 83
SWIDTH 602 0
DWIDTH 6 0
BBX 1 1 -3 -3
BITMAP
00
ENDCHAR
STARTCHAR T
ENCODING 84
SWIDTH 602 0
DWIDTH 6 0
BBX 1 1 -3 -3
BITMAP
00
ENDCHAR
STARTCHAR U
ENCODING 85
SWIDTH 602 0
DWIDTH 6 0
BBX 1 1 -3 -3
BITMAP
00
ENDCHAR
STARTCHAR V
ENCODING 86
SWIDTH 602 0
DWIDTH 6 0
BBX 1 1 -3 -3
BITMAP
00
ENDCHAR
STARTCHAR W
ENCODING 87
SWIDTH 602 0
DWIDTH 6 0
BBX 1 1 -3 -3
BITMAP
00
ENDCHAR
STARTCHAR X
ENCODING 88
SWIDTH 602 0
DWIDTH 6 0
BBX 1 1 -3 -3
BITMAP
00
ENDCHAR
STARTCHAR Y
ENCODING 89
SWIDTH 602 0
DWIDTH 6 0
BBX 1 1 -3 -3
BITMAP
00
ENDCHAR
STARTCHAR Z
ENCODING 90
SWIDTH 602 0
DWIDTH 6 0
BBX 1 1 -3 -3
BITMAP
00
ENDCHAR
STARTCHAR bracketleft
ENCODING 91
SWIDTH 602 0
DWIDTH 6 0
BBX 1 1 -3 -3
BITMAP
00
ENDCHAR
STARTCHAR backslash
ENCODING 92
SWIDTH 602 0
DWIDTH 6 0
BBX 1 1 -3 -3
BITMAP
00
ENDCHAR
STARTCHAR bracketright
ENCODING 93
SWIDTH 602 0
DWIDTH 6 0
BBX 1 1 -3 -3
BITMAP
00
ENDCHAR
STARTCHAR asciicircum
ENCODING 94
SWIDTH 602 0
DWIDTH 6 0
BBX 1 1 -3 -3
BITMAP
00
ENDCHAR
STARTCHAR underscore
ENCODING 95
SWIDTH 602 0
DWIDTH 6 0
BBX 1 1 -3 -3
BITMAP
00
ENDCHAR
STARTCHAR quoteleft
ENCODING 96
SWIDTH 602 0
DWIDTH 6 0
BBX 1 1 -3 -3
BITMAP
00
ENDCHAR
STARTCHAR a
ENCODING 97
SWIDTH 602 0
DWIDTH 6 0
BBX 1 1 -3 -3
BITMAP
00
ENDCHAR
STARTCHAR b
ENCODING 98
SWIDTH 602 0
DWIDTH 6 0
BBX 1 1 -3 -3
BITMAP
00
ENDCHAR
STARTCHAR c
ENCODING 99
SWIDTH 602 0
DWIDTH 6 0
BBX 1 1 -3 -3
BITMAP
00
ENDCHAR
STARTCHAR d
ENCODING 100
SWIDTH 602 0
DWIDTH 6 0
BBX 1 1 -3 -3
BITMAP
00
ENDCHAR
STARTCHAR e
ENCODING 101
SWIDTH 602 0
DWIDTH 6 0
BBX 1 1 -3 -3
BITMAP
00
ENDCHAR
STARTCHAR f
ENCODING 102
SWIDTH 602 0
DWIDTH 6 0
BBX 1 1 -3 -3
BITMAP
00
ENDCHAR
STARTCHAR g
ENCODING 103
SWIDTH 602 0
DWIDTH 6 0
BBX 1 1 -3 -3
BITMAP
00
ENDCHAR
STARTCHAR h
ENCODING 104
SWIDTH 602 0
DWIDTH 6 0
BBX 1 1 -3 -3
BITMAP
00
ENDCHAR
STARTCHAR i
ENCODING 105
SWIDTH 602 0
DWIDTH 6 0
BBX 1 1 -3 -3
BITMAP
00
ENDCHAR
STARTCHAR j
ENCODING 106
SWIDTH 602 0
DWIDTH 6 0
BBX 1 1 -3 -3
BITMAP
00
ENDCHAR
STARTCHAR k
ENCODING 107
SWIDTH 602 0
DWIDTH 6 0
BBX 1 1 -3 -3
BITMAP
00
ENDCHAR
STARTCHAR l
ENCODING 108
SWIDTH 602 0
DWIDTH 6 0
BBX 1 1 -3 -3
BITMAP
00
ENDCHAR
STARTCHAR m
ENCODING 109
SWIDTH 602 0
DWIDTH 6 0
BBX 1 1 -3 -3
BITMAP
00
ENDCHAR
STARTCHAR n
ENCODING 110
SWIDTH 602 0
DWIDTH 6 0
BBX 1 1 -3 -3
BITMAP
00
ENDCHAR
STARTCHAR o
ENCODING 111
SWIDTH 602 0
DWIDTH 6 0
BBX 1 1 -3 -3
BITMAP
00
ENDCHAR
STARTCHAR p
ENCODING 112
SWIDTH 602 0
DWIDTH 6 0
BBX 1 1 -3 -3
BITMAP
00
ENDCHAR
STARTCHAR q
ENCODING 113
SWIDTH 602 0
DWIDTH 6 0
BBX 1 1 -3 -3
BITMAP
00
ENDCHAR
STARTCHAR r
ENCODING 114
SWIDTH 602 0
DWIDTH 6 0
BBX 1 1 -3 -3
BITMAP
00
ENDCHAR
STARTCHAR s
ENCODING 115
SWIDTH 602 0
DWIDTH 6 0
BBX 1 1 -3 -3
BITMAP
00
ENDCHAR
STARTCHAR t
ENCODING 116
SWIDTH 602 0
DWIDTH 6 0
BBX 1 1 -3 -3
BITMAP
00
ENDCHAR
STARTCHAR u
ENCODING 117
SWIDTH 602 0
DWIDTH 6 0
BBX 1 1 -3 -3
BITMAP
00
ENDCHAR
STARTCHAR v
ENCODING 118
SWIDTH 602 0
DWIDTH 6 0
BBX 1 1 -3 -3
BITMAP
00
ENDCHAR
STARTCHAR w
ENCODING 119
SWIDTH 602 0
DWIDTH 6 0
BBX 1 1 -3 -3
BITMAP
00
ENDCHAR
STARTCHAR x
ENCODING 120
SWIDTH 602 0
DWIDTH 6 0
BBX 1 1 -3 -3
BITMAP
00
ENDCHAR
STARTCHAR y
ENCODING 121
SWIDTH 602 0
DWIDTH 6 0
BBX 1 1 -3 -3
BITMAP
00
ENDCHAR
STARTCHAR z
ENCODING 122
SWIDTH 602 0
DWIDTH 6 0
BBX 1 1 -3 -3
BITMAP
00
ENDCHAR
STARTCHAR braceleft
ENCODING 123
SWIDTH 602 0
DWIDTH 6 0
BBX 1 1 -3 -3
BITMAP
00
ENDCHAR
STARTCHAR bar
ENCODING 124
SWIDTH 602 0
DWIDTH 6 0
BBX 1 1 -3 -3
BITMAP
00
ENDCHAR
STARTCHAR braceright
ENCODING 125
SWIDTH 602 0
DWIDTH 6 0
BBX 1 1 -3 -3
BITMAP
00
ENDCHAR
STARTCHAR asciitilde
ENCODING 126
SWIDTH 602 0
DWIDTH 6 0
BBX 1 1 -3 -3
BITMAP
00
ENDCHAR
ENDFONT
